<?xml version="1.0" standalone="no"?>
<!DOCTYPE svg PUBLIC "-//W3C//DTD SVG 20010904//EN"
 "http://www.w3.org/TR/2001/REC-SVG-20010904/DTD/svg10.dtd">
<svg version="1.0" xmlns="http://www.w3.org/2000/svg"
 width="343.000000pt" height="373.000000pt" viewBox="0 0 343.000000 373.000000"
 preserveAspectRatio="xMidYMid meet">
<metadata>
Created by potrace 1.16, written by Peter Selinger 2001-2019
</metadata>
<g transform="translate(0.000000,373.000000) scale(0.100000,-0.100000)"
fill="#000000" stroke="none">
<path d="M1605 3031 c-16 -10 -302 -291 -634 -624 -599 -600 -604 -606 -597
-639 5 -26 58 -85 264 -290 237 -238 261 -258 292 -258 33 0 74 39 652 618
579 578 618 619 618 652 0 31 -20 54 -257 292 -155 154 -268 259 -283 263 -16
3 -36 -2 -55 -14z m339 -601 l-60 -61 -46 41 c-65 56 -122 53 -147 -8 -16 -37
5 -92 43 -117 14 -10 26 -23 26 -29 0 -6 -26 -37 -58 -69 l-57 -57 -95 95
c-101 101 -130 116 -178 91 -28 -15 -42 -40 -42 -80 0 -11 44 -63 100 -120
l100 -102 -63 -62 -63 -62 -38 39 c-43 45 -72 53 -114 35 -61 -25 -58 -97 7
-159 l31 -29 -57 -58 c-32 -32 -61 -58 -65 -58 -4 0 -50 43 -103 95 -53 52
-107 98 -120 101 -32 8 -83 -21 -91 -51 -11 -45 5 -73 102 -170 l96 -97 -61
-62 -61 -61 -180 180 -180 180 537 537 538 538 180 -180 180 -180 -61 -60z"/>
<path d="M2253 2266 l-28 -24 -3 -481 -3 -481 -473 0 c-464 0 -474 0 -500 -21
l-26 -20 0 -293 c0 -271 1 -294 18 -309 17 -16 88 -17 815 -17 l796 0 20 26
c21 26 21 33 21 811 l0 784 -25 24 -24 25 -280 0 -280 0 -28 -24z m475 -813
l-3 -678 -664 -3 c-482 -1 -668 1 -677 9 -11 9 -14 47 -14 159 0 82 3 155 6
164 5 13 23 16 90 16 l84 0 0 -54 c0 -69 6 -83 41 -101 38 -20 62 -19 90 4 19
15 25 32 29 83 l5 63 85 0 85 0 5 -63 c6 -72 30 -102 80 -102 50 0 74 30 80
102 l5 63 81 3 82 3 4 -62 c4 -52 9 -66 32 -86 34 -29 67 -29 101 0 22 18 27
34 32 85 l6 62 55 0 c71 0 102 25 102 81 0 53 -35 79 -107 79 l-54 0 3 88 3
87 60 5 c71 6 80 11 93 48 13 38 -8 89 -43 102 -15 6 -46 10 -71 10 l-44 0 0
85 0 85 54 0 c43 0 61 5 82 23 35 31 37 77 4 112 -20 21 -33 25 -82 25 l-58 0
0 90 0 90 170 0 170 0 -2 -677z"/>
</g>
</svg>
