<?xml version="1.0" standalone="no"?>
<!DOCTYPE svg PUBLIC "-//W3C//DTD SVG 20010904//EN"
 "http://www.w3.org/TR/2001/REC-SVG-20010904/DTD/svg10.dtd">
<svg version="1.0" xmlns="http://www.w3.org/2000/svg"
 width="411.000000pt" height="445.000000pt" viewBox="0 0 411.000000 445.000000"
 preserveAspectRatio="xMidYMid meet">
<metadata>
Created by potrace 1.16, written by Peter Selinger 2001-2019
</metadata>
<g transform="translate(0.000000,445.000000) scale(0.100000,-0.100000)"
fill="#000000" stroke="none">
<path d="M1993 3666 c-549 -10 -604 -13 -623 -28 -19 -17 -20 -29 -20 -242 0
-212 1 -225 21 -250 l21 -27 662 7 c363 3 677 10 697 15 28 7 61 36 147 129
71 75 112 128 112 142 0 27 -202 235 -247 254 -19 8 -61 13 -100 12 -37 -1
-339 -6 -670 -12z m790 -194 l67 -68 -70 -69 -69 -69 -473 -6 c-260 -4 -476
-5 -480 -3 -5 2 -8 65 -8 138 l0 134 133 4 c72 1 290 4 482 5 l351 2 67 -68z
m-1161 -52 c1 -60 2 -122 2 -137 1 -28 0 -28 -71 -31 l-73 -3 0 141 0 140 70
0 70 0 2 -110z"/>
<path d="M1136 2945 c-107 -30 -203 -125 -237 -237 -18 -60 -19 -103 -19 -803
0 -798 0 -797 54 -888 31 -55 96 -114 150 -137 88 -39 139 -41 1136 -38 1088
4 1021 -1 1123 81 69 56 112 131 127 215 7 47 10 294 8 807 -3 679 -5 744 -21
784 -39 99 -127 181 -228 212 -58 18 -104 19 -1052 18 -796 -1 -1002 -3 -1041
-14z m2037 -229 c18 -7 42 -26 52 -42 19 -28 20 -51 20 -777 l0 -749 -37 -34
-38 -34 -990 0 -989 0 -36 31 -35 31 0 755 c0 514 3 761 11 774 5 11 25 29 42
39 31 19 59 20 1000 20 795 0 973 -2 1000 -14z"/>
<path d="M1413 2470 c-17 -10 -37 -28 -42 -39 -15 -28 -15 -1021 0 -1054 24
-54 44 -57 342 -57 l275 0 30 28 c17 16 33 43 37 63 3 19 5 252 3 519 -3 532
-1 515 -64 545 -26 12 -81 15 -291 15 -238 0 -260 -2 -290 -20z m412 -565 l0
-350 -114 -3 c-85 -2 -117 1 -123 10 -9 16 -11 682 -1 692 4 3 59 5 122 4
l116 -3 0 -350z"/>
<path d="M2375 2480 c-88 -36 -95 -170 -11 -205 45 -19 70 -19 106 0 34 17 60
62 60 100 0 79 -83 135 -155 105z"/>
<path d="M2833 2470 c-39 -24 -53 -48 -53 -95 0 -53 24 -91 65 -105 81 -27
155 22 155 104 0 50 -21 83 -66 102 -44 19 -63 18 -101 -6z"/>
<path d="M2390 2013 c-36 -7 -77 -50 -84 -88 -20 -105 106 -178 184 -107 88
78 17 215 -100 195z"/>
<path d="M2854 2009 c-65 -19 -94 -89 -64 -156 27 -60 100 -82 160 -46 58 34
69 121 21 172 -16 17 -36 31 -44 31 -9 0 -21 2 -29 4 -7 2 -27 0 -44 -5z"/>
<path d="M2338 1511 c-29 -26 -33 -35 -33 -81 0 -46 4 -55 33 -81 94 -84 232
19 178 133 -31 65 -121 80 -178 29z"/>
<path d="M2815 1517 c-17 -14 -30 -38 -34 -64 -15 -78 31 -133 110 -133 80 0
135 91 98 163 -31 60 -123 78 -174 34z"/>
</g>
</svg>
