<?xml version="1.0" standalone="no"?>
<!DOCTYPE svg PUBLIC "-//W3C//DTD SVG 20010904//EN"
 "http://www.w3.org/TR/2001/REC-SVG-20010904/DTD/svg10.dtd">
<svg version="1.0" xmlns="http://www.w3.org/2000/svg"
 width="404.000000pt" height="406.000000pt" viewBox="0 0 404.000000 406.000000"
 preserveAspectRatio="xMidYMid meet">
<metadata>
Created by potrace 1.16, written by Peter Selinger 2001-2019
</metadata>
<g transform="translate(0.000000,406.000000) scale(0.100000,-0.100000)"
fill="#000000" stroke="none">
<path d="M1808 3291 c-96 -31 -198 -122 -222 -197 -6 -19 -16 -22 -119 -27
-173 -8 -270 -54 -340 -160 -70 -107 -67 -64 -67 -937 0 -741 1 -790 19 -843
34 -103 104 -182 206 -229 l50 -23 705 0 705 0 60 29 c65 32 143 104 171 157
43 84 44 96 44 910 0 842 1 831 -55 920 -78 123 -199 179 -386 179 -72 0 -78
2 -85 23 -12 40 -78 117 -129 152 -81 54 -135 65 -329 64 -137 0 -182 -4 -228
-18z m396 -235 c60 -25 76 -57 76 -153 l0 -83 -242 2 -243 3 3 80 c4 91 18
119 73 147 44 23 281 26 333 4z m-653 -322 c4 -84 4 -86 42 -120 l37 -35 415
3 415 3 32 33 c31 31 33 37 37 117 l3 85 77 0 c83 0 128 -18 153 -62 10 -18
13 -175 13 -790 0 -760 0 -767 -21 -795 -11 -15 -36 -36 -55 -46 -32 -16 -79
-17 -669 -15 -701 3 -665 0 -707 65 -17 25 -18 80 -21 774 -3 821 -4 805 57
846 28 19 47 23 111 23 l78 0 3 -86z"/>
<path d="M1604 2311 c-30 -18 -54 -64 -54 -103 0 -32 29 -78 63 -98 30 -19 53
-20 427 -20 374 0 397 1 427 20 35 21 63 66 63 100 0 36 -31 90 -61 105 -23
12 -98 15 -431 15 -378 0 -405 -1 -434 -19z"/>
<path d="M1631 1837 c-101 -35 -104 -182 -5 -223 51 -21 568 -17 600 5 81 54
68 179 -22 217 -44 18 -521 19 -573 1z"/>
</g>
</svg>
